<mxfile host="app.diagrams.net" modified="2022-06-17T05:35:40.087Z" agent="5.0 (Windows NT 10.0; Win64; x64) AppleWebKit/537.36 (KHTML, like Gecko) Chrome/102.0.5005.125 Safari/537.36" etag="2FRodBgMx1ACmazWuJqr" version="18.1.3" type="github">
  <diagram id="3eOcRODr5a2ZxDXzKaaj" name="Page-1">
    <mxGraphModel dx="1243" dy="669" grid="1" gridSize="10" guides="1" tooltips="1" connect="1" arrows="1" fold="1" page="1" pageScale="1" pageWidth="827" pageHeight="1169" math="0" shadow="0">
      <root>
        <mxCell id="0" />
        <mxCell id="1" parent="0" />
        <mxCell id="H4TOVe8OUCmi3uDP2C-D-3" style="edgeStyle=orthogonalEdgeStyle;rounded=0;orthogonalLoop=1;jettySize=auto;html=1;" edge="1" parent="1" source="H4TOVe8OUCmi3uDP2C-D-1" target="H4TOVe8OUCmi3uDP2C-D-2">
          <mxGeometry relative="1" as="geometry" />
        </mxCell>
        <mxCell id="H4TOVe8OUCmi3uDP2C-D-1" value="Начало" style="rounded=1;whiteSpace=wrap;html=1;" vertex="1" parent="1">
          <mxGeometry x="354" y="60" width="120" height="60" as="geometry" />
        </mxCell>
        <mxCell id="H4TOVe8OUCmi3uDP2C-D-5" style="edgeStyle=orthogonalEdgeStyle;rounded=0;orthogonalLoop=1;jettySize=auto;html=1;" edge="1" parent="1" source="H4TOVe8OUCmi3uDP2C-D-2" target="H4TOVe8OUCmi3uDP2C-D-4">
          <mxGeometry relative="1" as="geometry" />
        </mxCell>
        <mxCell id="H4TOVe8OUCmi3uDP2C-D-2" value="Ввод количество нарванных яблок(A) и лиц(P)" style="shape=parallelogram;perimeter=parallelogramPerimeter;whiteSpace=wrap;html=1;fixedSize=1;" vertex="1" parent="1">
          <mxGeometry x="336" y="150" width="156" height="70" as="geometry" />
        </mxCell>
        <mxCell id="H4TOVe8OUCmi3uDP2C-D-8" style="edgeStyle=orthogonalEdgeStyle;rounded=0;orthogonalLoop=1;jettySize=auto;html=1;" edge="1" parent="1" source="H4TOVe8OUCmi3uDP2C-D-4" target="H4TOVe8OUCmi3uDP2C-D-7">
          <mxGeometry relative="1" as="geometry" />
        </mxCell>
        <mxCell id="H4TOVe8OUCmi3uDP2C-D-4" value="Инициализация массива (Array)" style="rounded=0;whiteSpace=wrap;html=1;" vertex="1" parent="1">
          <mxGeometry x="354" y="240" width="120" height="60" as="geometry" />
        </mxCell>
        <mxCell id="H4TOVe8OUCmi3uDP2C-D-11" style="edgeStyle=orthogonalEdgeStyle;rounded=0;orthogonalLoop=1;jettySize=auto;html=1;entryX=0.5;entryY=0;entryDx=0;entryDy=0;" edge="1" parent="1" source="H4TOVe8OUCmi3uDP2C-D-6" target="H4TOVe8OUCmi3uDP2C-D-10">
          <mxGeometry relative="1" as="geometry" />
        </mxCell>
        <mxCell id="H4TOVe8OUCmi3uDP2C-D-27" style="edgeStyle=orthogonalEdgeStyle;rounded=0;orthogonalLoop=1;jettySize=auto;html=1;entryX=0.5;entryY=0;entryDx=0;entryDy=0;" edge="1" parent="1" source="H4TOVe8OUCmi3uDP2C-D-6" target="H4TOVe8OUCmi3uDP2C-D-26">
          <mxGeometry relative="1" as="geometry">
            <Array as="points">
              <mxPoint x="220" y="425" />
              <mxPoint x="220" y="870" />
              <mxPoint x="414" y="870" />
            </Array>
          </mxGeometry>
        </mxCell>
        <mxCell id="H4TOVe8OUCmi3uDP2C-D-6" value="i = 0; i &amp;lt; P; i++" style="shape=hexagon;perimeter=hexagonPerimeter2;whiteSpace=wrap;html=1;fixedSize=1;" vertex="1" parent="1">
          <mxGeometry x="354" y="400" width="120" height="50" as="geometry" />
        </mxCell>
        <mxCell id="H4TOVe8OUCmi3uDP2C-D-9" style="edgeStyle=orthogonalEdgeStyle;rounded=0;orthogonalLoop=1;jettySize=auto;html=1;entryX=0.5;entryY=0;entryDx=0;entryDy=0;" edge="1" parent="1" source="H4TOVe8OUCmi3uDP2C-D-7" target="H4TOVe8OUCmi3uDP2C-D-6">
          <mxGeometry relative="1" as="geometry" />
        </mxCell>
        <mxCell id="H4TOVe8OUCmi3uDP2C-D-7" value="0 элемент array = A" style="rounded=0;whiteSpace=wrap;html=1;" vertex="1" parent="1">
          <mxGeometry x="354" y="320" width="120" height="60" as="geometry" />
        </mxCell>
        <mxCell id="H4TOVe8OUCmi3uDP2C-D-21" style="edgeStyle=orthogonalEdgeStyle;rounded=0;orthogonalLoop=1;jettySize=auto;html=1;" edge="1" parent="1" source="H4TOVe8OUCmi3uDP2C-D-10" target="H4TOVe8OUCmi3uDP2C-D-12">
          <mxGeometry relative="1" as="geometry" />
        </mxCell>
        <mxCell id="H4TOVe8OUCmi3uDP2C-D-24" style="edgeStyle=orthogonalEdgeStyle;rounded=0;orthogonalLoop=1;jettySize=auto;html=1;entryX=0.5;entryY=0;entryDx=0;entryDy=0;" edge="1" parent="1" source="H4TOVe8OUCmi3uDP2C-D-10" target="H4TOVe8OUCmi3uDP2C-D-23">
          <mxGeometry relative="1" as="geometry" />
        </mxCell>
        <mxCell id="H4TOVe8OUCmi3uDP2C-D-10" value="j = 0; j &amp;lt; P; j++" style="shape=hexagon;perimeter=hexagonPerimeter2;whiteSpace=wrap;html=1;fixedSize=1;" vertex="1" parent="1">
          <mxGeometry x="354" y="470" width="120" height="50" as="geometry" />
        </mxCell>
        <mxCell id="H4TOVe8OUCmi3uDP2C-D-14" style="edgeStyle=orthogonalEdgeStyle;rounded=0;orthogonalLoop=1;jettySize=auto;html=1;entryX=0.5;entryY=0;entryDx=0;entryDy=0;" edge="1" parent="1" source="H4TOVe8OUCmi3uDP2C-D-12" target="H4TOVe8OUCmi3uDP2C-D-13">
          <mxGeometry relative="1" as="geometry">
            <Array as="points">
              <mxPoint x="484" y="580" />
            </Array>
          </mxGeometry>
        </mxCell>
        <mxCell id="H4TOVe8OUCmi3uDP2C-D-17" style="edgeStyle=orthogonalEdgeStyle;rounded=0;orthogonalLoop=1;jettySize=auto;html=1;" edge="1" parent="1" source="H4TOVe8OUCmi3uDP2C-D-12">
          <mxGeometry relative="1" as="geometry">
            <mxPoint x="414" y="660" as="targetPoint" />
            <Array as="points">
              <mxPoint x="350" y="580" />
              <mxPoint x="350" y="660" />
            </Array>
          </mxGeometry>
        </mxCell>
        <mxCell id="H4TOVe8OUCmi3uDP2C-D-12" value="Если i=j" style="rhombus;whiteSpace=wrap;html=1;" vertex="1" parent="1">
          <mxGeometry x="374" y="540" width="80" height="80" as="geometry" />
        </mxCell>
        <mxCell id="H4TOVe8OUCmi3uDP2C-D-16" style="edgeStyle=orthogonalEdgeStyle;rounded=0;orthogonalLoop=1;jettySize=auto;html=1;entryX=0.5;entryY=0;entryDx=0;entryDy=0;" edge="1" parent="1" source="H4TOVe8OUCmi3uDP2C-D-13" target="H4TOVe8OUCmi3uDP2C-D-15">
          <mxGeometry relative="1" as="geometry">
            <Array as="points">
              <mxPoint x="484" y="660" />
              <mxPoint x="414" y="660" />
            </Array>
          </mxGeometry>
        </mxCell>
        <mxCell id="H4TOVe8OUCmi3uDP2C-D-13" value="j++" style="rounded=0;whiteSpace=wrap;html=1;" vertex="1" parent="1">
          <mxGeometry x="454" y="610" width="60" height="40" as="geometry" />
        </mxCell>
        <mxCell id="H4TOVe8OUCmi3uDP2C-D-20" style="edgeStyle=orthogonalEdgeStyle;rounded=0;orthogonalLoop=1;jettySize=auto;html=1;entryX=0.5;entryY=0;entryDx=0;entryDy=0;" edge="1" parent="1" source="H4TOVe8OUCmi3uDP2C-D-15" target="H4TOVe8OUCmi3uDP2C-D-19">
          <mxGeometry relative="1" as="geometry">
            <Array as="points">
              <mxPoint x="355" y="710" />
            </Array>
          </mxGeometry>
        </mxCell>
        <mxCell id="H4TOVe8OUCmi3uDP2C-D-29" style="edgeStyle=orthogonalEdgeStyle;rounded=0;orthogonalLoop=1;jettySize=auto;html=1;entryX=0.5;entryY=1;entryDx=0;entryDy=0;" edge="1" parent="1" source="H4TOVe8OUCmi3uDP2C-D-15" target="H4TOVe8OUCmi3uDP2C-D-23">
          <mxGeometry relative="1" as="geometry" />
        </mxCell>
        <mxCell id="H4TOVe8OUCmi3uDP2C-D-15" value="Если j &amp;gt;=P" style="rhombus;whiteSpace=wrap;html=1;" vertex="1" parent="1">
          <mxGeometry x="374" y="670" width="80" height="80" as="geometry" />
        </mxCell>
        <mxCell id="H4TOVe8OUCmi3uDP2C-D-18" value="Конец" style="rounded=1;whiteSpace=wrap;html=1;" vertex="1" parent="1">
          <mxGeometry x="354" y="1000" width="120" height="60" as="geometry" />
        </mxCell>
        <mxCell id="H4TOVe8OUCmi3uDP2C-D-22" style="edgeStyle=orthogonalEdgeStyle;rounded=0;orthogonalLoop=1;jettySize=auto;html=1;entryX=0;entryY=0.5;entryDx=0;entryDy=0;" edge="1" parent="1" source="H4TOVe8OUCmi3uDP2C-D-19" target="H4TOVe8OUCmi3uDP2C-D-10">
          <mxGeometry relative="1" as="geometry">
            <Array as="points">
              <mxPoint x="280" y="790" />
              <mxPoint x="280" y="495" />
            </Array>
          </mxGeometry>
        </mxCell>
        <mxCell id="H4TOVe8OUCmi3uDP2C-D-19" value="Array[j] + остаток от Array[i]" style="rounded=0;whiteSpace=wrap;html=1;" vertex="1" parent="1">
          <mxGeometry x="290" y="760" width="130" height="60" as="geometry" />
        </mxCell>
        <mxCell id="H4TOVe8OUCmi3uDP2C-D-25" style="edgeStyle=orthogonalEdgeStyle;rounded=0;orthogonalLoop=1;jettySize=auto;html=1;entryX=1;entryY=0.5;entryDx=0;entryDy=0;" edge="1" parent="1" source="H4TOVe8OUCmi3uDP2C-D-23" target="H4TOVe8OUCmi3uDP2C-D-6">
          <mxGeometry relative="1" as="geometry">
            <Array as="points">
              <mxPoint x="680" y="630" />
              <mxPoint x="680" y="425" />
            </Array>
          </mxGeometry>
        </mxCell>
        <mxCell id="H4TOVe8OUCmi3uDP2C-D-23" value="Array[i] = 0;" style="rounded=0;whiteSpace=wrap;html=1;" vertex="1" parent="1">
          <mxGeometry x="540" y="600" width="120" height="60" as="geometry" />
        </mxCell>
        <mxCell id="H4TOVe8OUCmi3uDP2C-D-30" style="edgeStyle=orthogonalEdgeStyle;rounded=0;orthogonalLoop=1;jettySize=auto;html=1;" edge="1" parent="1" source="H4TOVe8OUCmi3uDP2C-D-26" target="H4TOVe8OUCmi3uDP2C-D-18">
          <mxGeometry relative="1" as="geometry" />
        </mxCell>
        <mxCell id="H4TOVe8OUCmi3uDP2C-D-26" value="Вывод массива" style="shape=parallelogram;perimeter=parallelogramPerimeter;whiteSpace=wrap;html=1;fixedSize=1;" vertex="1" parent="1">
          <mxGeometry x="354" y="910" width="120" height="60" as="geometry" />
        </mxCell>
      </root>
    </mxGraphModel>
  </diagram>
</mxfile>
